<svg width="332" height="48" viewBox="0 0 332 48" fill="none" xmlns="http://www.w3.org/2000/svg">
<path d="M3.52273 47V0.454544H22.75C26.2348 0.454544 29.2424 1.13636 31.7727 2.5C34.3182 3.84848 36.2803 5.73485 37.6591 8.15909C39.0379 10.5682 39.7273 13.3712 39.7273 16.5682C39.7273 19.7803 39.0227 22.5909 37.6136 25C36.2197 27.3939 34.2273 29.25 31.6364 30.5682C29.0455 31.8864 25.9697 32.5455 22.4091 32.5455H10.5455V23.6818H20.3182C22.0152 23.6818 23.4318 23.3864 24.5682 22.7955C25.7197 22.2045 26.5909 21.3788 27.1818 20.3182C27.7727 19.2424 28.0682 17.9924 28.0682 16.5682C28.0682 15.1288 27.7727 13.8864 27.1818 12.8409C26.5909 11.7803 25.7197 10.9621 24.5682 10.3864C23.4167 9.81061 22 9.52273 20.3182 9.52273H14.7727V47H3.52273Z" fill="#FF0000"/>
<circle cx="58" cy="30" r="18" fill="#F5F5F7"/>
<path d="M57.1022 24.262L55.5344 26.5224L53.9641 26.385L58.0608 19.7167L60.1293 19.8976L57.1022 24.262ZM59.7306 29.9709L60.1049 29.0303L60.6325 29.0764L59.7306 29.9709Z" stroke="black" stroke-width="6"/>
<path d="M84.0455 47L74.9545 12.0909H86.1136L90.8182 34.4545H91.1136L96.1591 12.0909H107.045L112.227 34.2955H112.523L117.091 12.0909H128.25L119.136 47H107.25L101.795 26.6591H101.409L95.9545 47H84.0455Z" fill="#F5F5F7"/>
<path d="M147.841 47.6591C144.189 47.6591 141.038 46.9394 138.386 45.5C135.75 44.0455 133.72 41.9773 132.295 39.2955C130.886 36.5985 130.182 33.3939 130.182 29.6818C130.182 26.0758 130.894 22.9242 132.318 20.2273C133.742 17.5152 135.75 15.4091 138.341 13.9091C140.932 12.3939 143.985 11.6364 147.5 11.6364C149.985 11.6364 152.258 12.0227 154.318 12.7955C156.379 13.5682 158.159 14.7121 159.659 16.2273C161.159 17.7424 162.326 19.6136 163.159 21.8409C163.992 24.053 164.409 26.5909 164.409 29.4545V32.2273H134.068V25.7727H154.068C154.053 24.5909 153.773 23.5379 153.227 22.6136C152.682 21.6894 151.932 20.9697 150.977 20.4545C150.038 19.9242 148.955 19.6591 147.727 19.6591C146.485 19.6591 145.371 19.9394 144.386 20.5C143.402 21.0455 142.621 21.7955 142.045 22.75C141.47 23.6894 141.167 24.7576 141.136 25.9545V32.5227C141.136 33.947 141.417 35.197 141.977 36.2727C142.538 37.3333 143.333 38.1591 144.364 38.75C145.394 39.3409 146.621 39.6364 148.045 39.6364C149.03 39.6364 149.924 39.5 150.727 39.2273C151.53 38.9545 152.22 38.553 152.795 38.0227C153.371 37.4924 153.803 36.8409 154.091 36.0682L164.295 36.3636C163.871 38.6515 162.939 40.6439 161.5 42.3409C160.076 44.0227 158.205 45.3333 155.886 46.2727C153.568 47.197 150.886 47.6591 147.841 47.6591Z" fill="#F5F5F7"/>
<path d="M168.523 47V12.0909H179.318V18.4545H179.682C180.318 16.1515 181.356 14.4394 182.795 13.3182C184.235 12.1818 185.909 11.6136 187.818 11.6136C188.333 11.6136 188.864 11.6515 189.409 11.7273C189.955 11.7879 190.462 11.8864 190.932 12.0227V21.6818C190.402 21.5 189.705 21.3561 188.841 21.25C187.992 21.1439 187.235 21.0909 186.568 21.0909C185.25 21.0909 184.061 21.3864 183 21.9773C181.955 22.553 181.129 23.3636 180.523 24.4091C179.932 25.4394 179.636 26.6515 179.636 28.0455V47H168.523Z" fill="#F5F5F7"/>
<path d="M195.364 47V40.5909L217.977 9.59091H195.386V0.454544H232.205V6.86364L209.591 37.8636H232.182V47H195.364Z" fill="#FF0000"/>
<path d="M253.841 47.6591C250.189 47.6591 247.038 46.9394 244.386 45.5C241.75 44.0455 239.72 41.9773 238.295 39.2955C236.886 36.5985 236.182 33.3939 236.182 29.6818C236.182 26.0758 236.894 22.9242 238.318 20.2273C239.742 17.5152 241.75 15.4091 244.341 13.9091C246.932 12.3939 249.985 11.6364 253.5 11.6364C255.985 11.6364 258.258 12.0227 260.318 12.7955C262.379 13.5682 264.159 14.7121 265.659 16.2273C267.159 17.7424 268.326 19.6136 269.159 21.8409C269.992 24.053 270.409 26.5909 270.409 29.4545V32.2273H240.068V25.7727H260.068C260.053 24.5909 259.773 23.5379 259.227 22.6136C258.682 21.6894 257.932 20.9697 256.977 20.4545C256.038 19.9242 254.955 19.6591 253.727 19.6591C252.485 19.6591 251.371 19.9394 250.386 20.5C249.402 21.0455 248.621 21.7955 248.045 22.75C247.47 23.6894 247.167 24.7576 247.136 25.9545V32.5227C247.136 33.947 247.417 35.197 247.977 36.2727C248.538 37.3333 249.333 38.1591 250.364 38.75C251.394 39.3409 252.621 39.6364 254.045 39.6364C255.03 39.6364 255.924 39.5 256.727 39.2273C257.53 38.9545 258.22 38.553 258.795 38.0227C259.371 37.4924 259.803 36.8409 260.091 36.0682L270.295 36.3636C269.871 38.6515 268.939 40.6439 267.5 42.3409C266.076 44.0227 264.205 45.3333 261.886 46.2727C259.568 47.197 256.886 47.6591 253.841 47.6591Z" fill="#F5F5F7"/>
<path d="M305 22.75L294.795 23.0227C294.689 22.2955 294.402 21.6515 293.932 21.0909C293.462 20.5152 292.848 20.0682 292.091 19.75C291.348 19.4167 290.485 19.25 289.5 19.25C288.212 19.25 287.114 19.5076 286.205 20.0227C285.311 20.5379 284.871 21.2348 284.886 22.1136C284.871 22.7955 285.144 23.3864 285.705 23.8864C286.28 24.3864 287.303 24.7879 288.773 25.0909L295.5 26.3636C298.985 27.0303 301.576 28.1364 303.273 29.6818C304.985 31.2273 305.848 33.2727 305.864 35.8182C305.848 38.2121 305.136 40.2955 303.727 42.0682C302.333 43.8409 300.424 45.2197 298 46.2045C295.576 47.1742 292.803 47.6591 289.682 47.6591C284.697 47.6591 280.765 46.6364 277.886 44.5909C275.023 42.5303 273.386 39.7727 272.977 36.3182L283.955 36.0455C284.197 37.3182 284.826 38.2879 285.841 38.9545C286.856 39.6212 288.152 39.9545 289.727 39.9545C291.152 39.9545 292.311 39.6894 293.205 39.1591C294.098 38.6288 294.553 37.9242 294.568 37.0455C294.553 36.2576 294.205 35.6288 293.523 35.1591C292.841 34.6742 291.773 34.2955 290.318 34.0227L284.227 32.8636C280.727 32.2273 278.121 31.053 276.409 29.3409C274.697 27.6136 273.848 25.4167 273.864 22.75C273.848 20.4167 274.47 18.4242 275.727 16.7727C276.985 15.1061 278.773 13.8333 281.091 12.9545C283.409 12.0758 286.144 11.6364 289.295 11.6364C294.023 11.6364 297.75 12.6288 300.477 14.6136C303.205 16.5833 304.712 19.2955 305 22.75Z" fill="#F5F5F7"/>
<path d="M329.227 12.0909V20.2727H307.205V12.0909H329.227ZM311.818 3.72727H322.932V36.0227C322.932 36.7045 323.038 37.2576 323.25 37.6818C323.477 38.0909 323.803 38.3864 324.227 38.5682C324.652 38.7348 325.159 38.8182 325.75 38.8182C326.174 38.8182 326.621 38.7803 327.091 38.7045C327.576 38.6136 327.939 38.5379 328.182 38.4773L329.864 46.5C329.333 46.6515 328.583 46.8409 327.614 47.0682C326.659 47.2955 325.515 47.4394 324.182 47.5C321.576 47.6212 319.341 47.3182 317.477 46.5909C315.629 45.8485 314.212 44.697 313.227 43.1364C312.258 41.5758 311.788 39.6136 311.818 37.25V3.72727Z" fill="#F5F5F7"/>
</svg>
