<svg width="168" height="40" viewBox="0 0 168 40" fill="none" xmlns="http://www.w3.org/2000/svg">
<path d="M1.76136 24V0.727272H11.375C13.1174 0.727272 14.6212 1.06818 15.8864 1.75C17.1591 2.42424 18.1402 3.36742 18.8295 4.57954C19.5189 5.78409 19.8636 7.18561 19.8636 8.78409C19.8636 10.3902 19.5114 11.7955 18.8068 13C18.1098 14.197 17.1136 15.125 15.8182 15.7841C14.5227 16.4432 12.9848 16.7727 11.2045 16.7727H5.27273V12.3409H10.1591C11.0076 12.3409 11.7159 12.1932 12.2841 11.8977C12.8598 11.6023 13.2955 11.1894 13.5909 10.6591C13.8864 10.1212 14.0341 9.49621 14.0341 8.78409C14.0341 8.06439 13.8864 7.44318 13.5909 6.92045C13.2955 6.39015 12.8598 5.98106 12.2841 5.69318C11.7083 5.4053 11 5.26136 10.1591 5.26136H7.38636V24H1.76136Z" fill="#FF0000"/>
<circle cx="29" cy="15" r="9" fill="white"/>
<path d="M28.5511 12.131L27.7672 13.2612L26.982 13.1925L29.0304 9.85835L30.0647 9.94883L28.5511 12.131ZM29.8653 14.9855L30.0524 14.5151L30.3162 14.5382L29.8653 14.9855Z" stroke="black" stroke-width="3"/>
<path d="M42.0227 24L37.4773 6.54545H43.0568L45.4091 17.7273H45.5568L48.0795 6.54545H53.5227L56.1136 17.6477H56.2614L58.5455 6.54545H64.125L59.5682 24H53.625L50.8977 13.8295H50.7045L47.9773 24H42.0227Z" fill="white"/>
<path d="M73.9205 24.3295C72.0947 24.3295 70.5189 23.9697 69.1932 23.25C67.875 22.5227 66.8598 21.4886 66.1477 20.1477C65.4432 18.7992 65.0909 17.197 65.0909 15.3409C65.0909 13.5379 65.447 11.9621 66.1591 10.6136C66.8712 9.25758 67.875 8.20454 69.1705 7.45454C70.4659 6.69697 71.9924 6.31818 73.75 6.31818C74.9924 6.31818 76.1288 6.51136 77.1591 6.89773C78.1894 7.28409 79.0795 7.85606 79.8295 8.61364C80.5795 9.37121 81.1629 10.3068 81.5795 11.4205C81.9962 12.5265 82.2045 13.7955 82.2045 15.2273V16.6136H67.0341V13.3864H77.0341C77.0265 12.7955 76.8864 12.2689 76.6136 11.8068C76.3409 11.3447 75.9659 10.9848 75.4886 10.7273C75.0189 10.4621 74.4773 10.3295 73.8636 10.3295C73.2424 10.3295 72.6856 10.4697 72.1932 10.75C71.7008 11.0227 71.3106 11.3977 71.0227 11.875C70.7348 12.3447 70.5833 12.8788 70.5682 13.4773V16.7614C70.5682 17.4735 70.7083 18.0985 70.9886 18.6364C71.2689 19.1667 71.6667 19.5795 72.1818 19.875C72.697 20.1705 73.3106 20.3182 74.0227 20.3182C74.5152 20.3182 74.9621 20.25 75.3636 20.1136C75.7652 19.9773 76.1098 19.7765 76.3977 19.5114C76.6856 19.2462 76.9015 18.9205 77.0455 18.5341L82.1477 18.6818C81.9356 19.8258 81.4697 20.822 80.75 21.6705C80.0379 22.5114 79.1023 23.1667 77.9432 23.6364C76.7841 24.0985 75.4432 24.3295 73.9205 24.3295Z" fill="white"/>
<path d="M84.7614 24V6.54545H90.1591V9.72727H90.3409C90.6591 8.57576 91.178 7.7197 91.8977 7.15909C92.6174 6.59091 93.4545 6.30682 94.4091 6.30682C94.6667 6.30682 94.9318 6.32576 95.2045 6.36364C95.4773 6.39394 95.7311 6.44318 95.9659 6.51136V11.3409C95.7008 11.25 95.3523 11.178 94.9205 11.125C94.4962 11.072 94.1174 11.0455 93.7841 11.0455C93.125 11.0455 92.5303 11.1932 92 11.4886C91.4773 11.7765 91.0644 12.1818 90.7614 12.7045C90.4659 13.2197 90.3182 13.8258 90.3182 14.5227V24H84.7614Z" fill="white"/>
<path d="M98.6818 24V20.7955L109.989 5.29545H98.6932V0.727272H117.102V3.93182L105.795 19.4318H117.091V24H98.6818Z" fill="#FF0000"/>
<path d="M127.92 24.3295C126.095 24.3295 124.519 23.9697 123.193 23.25C121.875 22.5227 120.86 21.4886 120.148 20.1477C119.443 18.7992 119.091 17.197 119.091 15.3409C119.091 13.5379 119.447 11.9621 120.159 10.6136C120.871 9.25758 121.875 8.20454 123.17 7.45454C124.466 6.69697 125.992 6.31818 127.75 6.31818C128.992 6.31818 130.129 6.51136 131.159 6.89773C132.189 7.28409 133.08 7.85606 133.83 8.61364C134.58 9.37121 135.163 10.3068 135.58 11.4205C135.996 12.5265 136.205 13.7955 136.205 15.2273V16.6136H121.034V13.3864H131.034C131.027 12.7955 130.886 12.2689 130.614 11.8068C130.341 11.3447 129.966 10.9848 129.489 10.7273C129.019 10.4621 128.477 10.3295 127.864 10.3295C127.242 10.3295 126.686 10.4697 126.193 10.75C125.701 11.0227 125.311 11.3977 125.023 11.875C124.735 12.3447 124.583 12.8788 124.568 13.4773V16.7614C124.568 17.4735 124.708 18.0985 124.989 18.6364C125.269 19.1667 125.667 19.5795 126.182 19.875C126.697 20.1705 127.311 20.3182 128.023 20.3182C128.515 20.3182 128.962 20.25 129.364 20.1136C129.765 19.9773 130.11 19.7765 130.398 19.5114C130.686 19.2462 130.902 18.9205 131.045 18.5341L136.148 18.6818C135.936 19.8258 135.47 20.822 134.75 21.6705C134.038 22.5114 133.102 23.1667 131.943 23.6364C130.784 24.0985 129.443 24.3295 127.92 24.3295Z" fill="white"/>
<path d="M154 11.875L148.898 12.0114C148.845 11.6477 148.701 11.3258 148.466 11.0455C148.231 10.7576 147.924 10.5341 147.545 10.375C147.174 10.2083 146.742 10.125 146.25 10.125C145.606 10.125 145.057 10.2538 144.602 10.5114C144.155 10.7689 143.936 11.1174 143.943 11.5568C143.936 11.8977 144.072 12.1932 144.352 12.4432C144.64 12.6932 145.152 12.8939 145.886 13.0455L149.25 13.6818C150.992 14.0152 152.288 14.5682 153.136 15.3409C153.992 16.1136 154.424 17.1364 154.432 18.4091C154.424 19.6061 154.068 20.6477 153.364 21.5341C152.667 22.4205 151.712 23.1098 150.5 23.6023C149.288 24.0871 147.902 24.3295 146.341 24.3295C143.848 24.3295 141.883 23.8182 140.443 22.7955C139.011 21.7652 138.193 20.3864 137.989 18.6591L143.477 18.5227C143.598 19.1591 143.913 19.6439 144.42 19.9773C144.928 20.3106 145.576 20.4773 146.364 20.4773C147.076 20.4773 147.655 20.3447 148.102 20.0795C148.549 19.8144 148.777 19.4621 148.784 19.0227C148.777 18.6288 148.602 18.3144 148.261 18.0795C147.92 17.8371 147.386 17.6477 146.659 17.5114L143.614 16.9318C141.864 16.6136 140.561 16.0265 139.705 15.1705C138.848 14.3068 138.424 13.2083 138.432 11.875C138.424 10.7083 138.735 9.71212 139.364 8.88636C139.992 8.05303 140.886 7.41667 142.045 6.97727C143.205 6.53788 144.572 6.31818 146.148 6.31818C148.511 6.31818 150.375 6.81439 151.739 7.80682C153.102 8.79167 153.856 10.1477 154 11.875Z" fill="white"/>
<path d="M166.614 6.54545V10.6364H155.602V6.54545H166.614ZM157.909 2.36364H163.466V18.5114C163.466 18.8523 163.519 19.1288 163.625 19.3409C163.739 19.5455 163.902 19.6932 164.114 19.7841C164.326 19.8674 164.58 19.9091 164.875 19.9091C165.087 19.9091 165.311 19.8902 165.545 19.8523C165.788 19.8068 165.97 19.7689 166.091 19.7386L166.932 23.75C166.667 23.8258 166.292 23.9205 165.807 24.0341C165.33 24.1477 164.758 24.2197 164.091 24.25C162.788 24.3106 161.67 24.1591 160.739 23.7955C159.814 23.4242 159.106 22.8485 158.614 22.0682C158.129 21.2879 157.894 20.3068 157.909 19.125V2.36364Z" fill="white"/>
<path d="M6.41016 36.0801V37H1.89258V36.0801H6.41016ZM2.12109 28.4688V37H0.990234V28.4688H2.12109ZM5.8125 32.1367V33.0566H1.89258V32.1367H5.8125ZM6.35156 28.4688V29.3945H1.89258V28.4688H6.35156ZM8.73047 32.0137V37H7.64648V30.6602H8.67188L8.73047 32.0137ZM8.47266 33.5898L8.02148 33.5723C8.02539 33.1387 8.08984 32.7383 8.21484 32.3711C8.33984 32 8.51562 31.6777 8.74219 31.4043C8.96875 31.1309 9.23828 30.9199 9.55078 30.7715C9.86719 30.6191 10.2168 30.543 10.5996 30.543C10.9121 30.543 11.1934 30.5859 11.4434 30.6719C11.6934 30.7539 11.9062 30.8867 12.082 31.0703C12.2617 31.2539 12.3984 31.4922 12.4922 31.7852C12.5859 32.0742 12.6328 32.4277 12.6328 32.8457V37H11.543V32.834C11.543 32.502 11.4941 32.2363 11.3965 32.0371C11.2988 31.834 11.1562 31.6875 10.9688 31.5977C10.7812 31.5039 10.5508 31.457 10.2773 31.457C10.0078 31.457 9.76172 31.5137 9.53906 31.627C9.32031 31.7402 9.13086 31.8965 8.9707 32.0957C8.81445 32.2949 8.69141 32.5234 8.60156 32.7812C8.51562 33.0352 8.47266 33.3047 8.47266 33.5898ZM16.9102 37.1172C16.4688 37.1172 16.0684 37.043 15.709 36.8945C15.3535 36.7422 15.0469 36.5293 14.7891 36.2559C14.5352 35.9824 14.3398 35.6582 14.2031 35.2832C14.0664 34.9082 13.998 34.498 13.998 34.0527V33.8066C13.998 33.291 14.0742 32.832 14.2266 32.4297C14.3789 32.0234 14.5859 31.6797 14.8477 31.3984C15.1094 31.1172 15.4062 30.9043 15.7383 30.7598C16.0703 30.6152 16.4141 30.543 16.7695 30.543C17.2227 30.543 17.6133 30.6211 17.9414 30.7773C18.2734 30.9336 18.5449 31.1523 18.7559 31.4336C18.9668 31.7109 19.123 32.0391 19.2246 32.418C19.3262 32.793 19.377 33.2031 19.377 33.6484V34.1348H14.6426V33.25H18.293V33.168C18.2773 32.8867 18.2188 32.6133 18.1172 32.3477C18.0195 32.082 17.8633 31.8633 17.6484 31.6914C17.4336 31.5195 17.1406 31.4336 16.7695 31.4336C16.5234 31.4336 16.2969 31.4863 16.0898 31.5918C15.8828 31.6934 15.7051 31.8457 15.5566 32.0488C15.4082 32.252 15.293 32.5 15.2109 32.793C15.1289 33.0859 15.0879 33.4238 15.0879 33.8066V34.0527C15.0879 34.3535 15.1289 34.6367 15.2109 34.9023C15.2969 35.1641 15.4199 35.3945 15.5801 35.5938C15.7441 35.793 15.9414 35.9492 16.1719 36.0625C16.4062 36.1758 16.6719 36.2324 16.9688 36.2324C17.3516 36.2324 17.6758 36.1543 17.9414 35.998C18.207 35.8418 18.4395 35.6328 18.6387 35.3711L19.2949 35.8926C19.1582 36.0996 18.9844 36.2969 18.7734 36.4844C18.5625 36.6719 18.3027 36.8242 17.9941 36.9414C17.6895 37.0586 17.3281 37.1172 16.9102 37.1172ZM21.7266 31.6562V37H20.6426V30.6602H21.6973L21.7266 31.6562ZM23.707 30.625L23.7012 31.6328C23.6113 31.6133 23.5254 31.6016 23.4434 31.5977C23.3652 31.5898 23.2754 31.5859 23.1738 31.5859C22.9238 31.5859 22.7031 31.625 22.5117 31.7031C22.3203 31.7812 22.1582 31.8906 22.0254 32.0312C21.8926 32.1719 21.7871 32.3398 21.709 32.5352C21.6348 32.7266 21.5859 32.9375 21.5625 33.168L21.2578 33.3438C21.2578 32.9609 21.2949 32.6016 21.3691 32.2656C21.4473 31.9297 21.5664 31.6328 21.7266 31.375C21.8867 31.1133 22.0898 30.9102 22.3359 30.7656C22.5859 30.6172 22.8828 30.543 23.2266 30.543C23.3047 30.543 23.3945 30.5527 23.4961 30.5723C23.5977 30.5879 23.668 30.6055 23.707 30.625ZM28.6992 30.6602H29.6836V36.8652C29.6836 37.4238 29.5703 37.9004 29.3438 38.2949C29.1172 38.6895 28.8008 38.9883 28.3945 39.1914C27.9922 39.3984 27.5273 39.502 27 39.502C26.7812 39.502 26.5234 39.4668 26.2266 39.3965C25.9336 39.3301 25.6445 39.2148 25.3594 39.0508C25.0781 38.8906 24.8418 38.6738 24.6504 38.4004L25.2188 37.7559C25.4844 38.0762 25.7617 38.2988 26.0508 38.4238C26.3438 38.5488 26.6328 38.6113 26.918 38.6113C27.2617 38.6113 27.5586 38.5469 27.8086 38.418C28.0586 38.2891 28.252 38.0977 28.3887 37.8438C28.5293 37.5938 28.5996 37.2852 28.5996 36.918V32.0547L28.6992 30.6602ZM24.334 33.9004V33.7773C24.334 33.293 24.3906 32.8535 24.5039 32.459C24.6211 32.0605 24.7871 31.7188 25.002 31.4336C25.2207 31.1484 25.4844 30.9297 25.793 30.7773C26.1016 30.6211 26.4492 30.543 26.8359 30.543C27.2344 30.543 27.582 30.6133 27.8789 30.7539C28.1797 30.8906 28.4336 31.0918 28.6406 31.3574C28.8516 31.6191 29.0176 31.9355 29.1387 32.3066C29.2598 32.6777 29.3438 33.0977 29.3906 33.5664V34.1055C29.3477 34.5703 29.2637 34.9883 29.1387 35.3594C29.0176 35.7305 28.8516 36.0469 28.6406 36.3086C28.4336 36.5703 28.1797 36.7715 27.8789 36.9121C27.5781 37.0488 27.2266 37.1172 26.8242 37.1172C26.4453 37.1172 26.1016 37.0371 25.793 36.877C25.4883 36.7168 25.2266 36.4922 25.0078 36.2031C24.7891 35.9141 24.6211 35.5742 24.5039 35.1836C24.3906 34.7891 24.334 34.3613 24.334 33.9004ZM25.418 33.7773V33.9004C25.418 34.2168 25.4492 34.5137 25.5117 34.791C25.5781 35.0684 25.6777 35.3125 25.8105 35.5234C25.9473 35.7344 26.1211 35.9004 26.332 36.0215C26.543 36.1387 26.7949 36.1973 27.0879 36.1973C27.4473 36.1973 27.7441 36.1211 27.9785 35.9688C28.2129 35.8164 28.3984 35.6152 28.5352 35.3652C28.6758 35.1152 28.7852 34.8438 28.8633 34.5508V33.1387C28.8203 32.9238 28.7539 32.7168 28.6641 32.5176C28.5781 32.3145 28.4648 32.1348 28.3242 31.9785C28.1875 31.8184 28.0176 31.6914 27.8145 31.5977C27.6113 31.5039 27.373 31.457 27.0996 31.457C26.8027 31.457 26.5469 31.5195 26.332 31.6445C26.1211 31.7656 25.9473 31.9336 25.8105 32.1484C25.6777 32.3594 25.5781 32.6055 25.5117 32.8867C25.4492 33.1641 25.418 33.4609 25.418 33.7773ZM33.1113 36.3438L34.875 30.6602H36.0352L33.4922 37.9785C33.4336 38.1348 33.3555 38.3027 33.2578 38.4824C33.1641 38.666 33.043 38.8398 32.8945 39.0039C32.7461 39.168 32.5664 39.3008 32.3555 39.4023C32.1484 39.5078 31.9004 39.5605 31.6113 39.5605C31.5254 39.5605 31.416 39.5488 31.2832 39.5254C31.1504 39.502 31.0566 39.4824 31.002 39.4668L30.9961 38.5879C31.0273 38.5918 31.0762 38.5957 31.1426 38.5996C31.2129 38.6074 31.2617 38.6113 31.2891 38.6113C31.5352 38.6113 31.7441 38.5781 31.916 38.5117C32.0879 38.4492 32.2324 38.3418 32.3496 38.1895C32.4707 38.041 32.5742 37.8359 32.6602 37.5742L33.1113 36.3438ZM31.8164 30.6602L33.4629 35.582L33.7441 36.7246L32.9648 37.123L30.6328 30.6602H31.8164ZM44.7012 34.8438C44.7012 34.6445 44.6699 34.4688 44.6074 34.3164C44.5488 34.1602 44.4434 34.0195 44.291 33.8945C44.1426 33.7695 43.9355 33.6504 43.6699 33.5371C43.4082 33.4238 43.0762 33.3086 42.6738 33.1914C42.252 33.0664 41.8711 32.9277 41.5312 32.7754C41.1914 32.6191 40.9004 32.4414 40.6582 32.2422C40.416 32.043 40.2305 31.8145 40.1016 31.5566C39.9727 31.2988 39.9082 31.0039 39.9082 30.6719C39.9082 30.3398 39.9766 30.0332 40.1133 29.752C40.25 29.4707 40.4453 29.2266 40.6992 29.0195C40.957 28.8086 41.2637 28.6445 41.6191 28.5273C41.9746 28.4102 42.3711 28.3516 42.8086 28.3516C43.4492 28.3516 43.9922 28.4746 44.4375 28.7207C44.8867 28.9629 45.2285 29.2812 45.4629 29.6758C45.6973 30.0664 45.8145 30.4844 45.8145 30.9297H44.6895C44.6895 30.6094 44.6211 30.3262 44.4844 30.0801C44.3477 29.8301 44.1406 29.6348 43.8633 29.4941C43.5859 29.3496 43.2344 29.2773 42.8086 29.2773C42.4062 29.2773 42.0742 29.3379 41.8125 29.459C41.5508 29.5801 41.3555 29.7441 41.2266 29.9512C41.1016 30.1582 41.0391 30.3945 41.0391 30.6602C41.0391 30.8398 41.0762 31.0039 41.1504 31.1523C41.2285 31.2969 41.3477 31.4316 41.5078 31.5566C41.6719 31.6816 41.8789 31.7969 42.1289 31.9023C42.3828 32.0078 42.6855 32.1094 43.0371 32.207C43.5215 32.3438 43.9395 32.4961 44.291 32.6641C44.6426 32.832 44.9316 33.0215 45.1582 33.2324C45.3887 33.4395 45.5586 33.6758 45.668 33.9414C45.7812 34.2031 45.8379 34.5 45.8379 34.832C45.8379 35.1797 45.7676 35.4941 45.627 35.7754C45.4863 36.0566 45.2852 36.2969 45.0234 36.4961C44.7617 36.6953 44.4473 36.8496 44.0801 36.959C43.7168 37.0645 43.3105 37.1172 42.8613 37.1172C42.4668 37.1172 42.0781 37.0625 41.6953 36.9531C41.3164 36.8438 40.9707 36.6797 40.6582 36.4609C40.3496 36.2422 40.1016 35.9727 39.9141 35.6523C39.7305 35.3281 39.6387 34.9531 39.6387 34.5273H40.7637C40.7637 34.8203 40.8203 35.0723 40.9336 35.2832C41.0469 35.4902 41.2012 35.6621 41.3965 35.7988C41.5957 35.9355 41.8203 36.0371 42.0703 36.1035C42.3242 36.166 42.5879 36.1973 42.8613 36.1973C43.2559 36.1973 43.5898 36.1426 43.8633 36.0332C44.1367 35.9238 44.3438 35.7676 44.4844 35.5645C44.6289 35.3613 44.7012 35.1211 44.7012 34.8438ZM46.8281 33.9004V33.7656C46.8281 33.3086 46.8945 32.8848 47.0273 32.4941C47.1602 32.0996 47.3516 31.7578 47.6016 31.4688C47.8516 31.1758 48.1543 30.9492 48.5098 30.7891C48.8652 30.625 49.2637 30.543 49.7051 30.543C50.1504 30.543 50.5508 30.625 50.9062 30.7891C51.2656 30.9492 51.5703 31.1758 51.8203 31.4688C52.0742 31.7578 52.2676 32.0996 52.4004 32.4941C52.5332 32.8848 52.5996 33.3086 52.5996 33.7656V33.9004C52.5996 34.3574 52.5332 34.7812 52.4004 35.1719C52.2676 35.5625 52.0742 35.9043 51.8203 36.1973C51.5703 36.4863 51.2676 36.7129 50.9121 36.877C50.5605 37.0371 50.1621 37.1172 49.7168 37.1172C49.2715 37.1172 48.8711 37.0371 48.5156 36.877C48.1602 36.7129 47.8555 36.4863 47.6016 36.1973C47.3516 35.9043 47.1602 35.5625 47.0273 35.1719C46.8945 34.7812 46.8281 34.3574 46.8281 33.9004ZM47.9121 33.7656V33.9004C47.9121 34.2168 47.9492 34.5156 48.0234 34.7969C48.0977 35.0742 48.209 35.3203 48.3574 35.5352C48.5098 35.75 48.6992 35.9199 48.9258 36.0449C49.1523 36.166 49.416 36.2266 49.7168 36.2266C50.0137 36.2266 50.2734 36.166 50.4961 36.0449C50.7227 35.9199 50.9102 35.75 51.0586 35.5352C51.207 35.3203 51.3184 35.0742 51.3926 34.7969C51.4707 34.5156 51.5098 34.2168 51.5098 33.9004V33.7656C51.5098 33.4531 51.4707 33.1582 51.3926 32.8809C51.3184 32.5996 51.2051 32.3516 51.0527 32.1367C50.9043 31.918 50.7168 31.7461 50.4902 31.6211C50.2676 31.4961 50.0059 31.4336 49.7051 31.4336C49.4082 31.4336 49.1465 31.4961 48.9199 31.6211C48.6973 31.7461 48.5098 31.918 48.3574 32.1367C48.209 32.3516 48.0977 32.5996 48.0234 32.8809C47.9492 33.1582 47.9121 33.4531 47.9121 33.7656ZM55.1367 28V37H54.0469V28H55.1367ZM60.7559 35.5352V30.6602H61.8457V37H60.8086L60.7559 35.5352ZM60.9609 34.1992L61.4121 34.1875C61.4121 34.6094 61.3672 35 61.2773 35.3594C61.1914 35.7148 61.0508 36.0234 60.8555 36.2852C60.6602 36.5469 60.4043 36.752 60.0879 36.9004C59.7715 37.0449 59.3867 37.1172 58.9336 37.1172C58.625 37.1172 58.3418 37.0723 58.084 36.9824C57.8301 36.8926 57.6113 36.7539 57.4277 36.5664C57.2441 36.3789 57.1016 36.1348 57 35.834C56.9023 35.5332 56.8535 35.1719 56.8535 34.75V30.6602H57.9375V34.7617C57.9375 35.0469 57.9688 35.2832 58.0312 35.4707C58.0977 35.6543 58.1855 35.8008 58.2949 35.9102C58.4082 36.0156 58.5332 36.0898 58.6699 36.1328C58.8105 36.1758 58.9551 36.1973 59.1035 36.1973C59.5645 36.1973 59.9297 36.1094 60.1992 35.9336C60.4688 35.7539 60.6621 35.5137 60.7793 35.2129C60.9004 34.9082 60.9609 34.5703 60.9609 34.1992ZM66.1523 30.6602V31.4922H62.7246V30.6602H66.1523ZM63.8848 29.1191H64.9688V35.4297C64.9688 35.6445 65.002 35.8066 65.0684 35.916C65.1348 36.0254 65.2207 36.0977 65.3262 36.1328C65.4316 36.168 65.5449 36.1855 65.666 36.1855C65.7559 36.1855 65.8496 36.1777 65.9473 36.1621C66.0488 36.1426 66.125 36.127 66.1758 36.1152L66.1816 37C66.0957 37.0273 65.9824 37.0527 65.8418 37.0762C65.7051 37.1035 65.5391 37.1172 65.3438 37.1172C65.0781 37.1172 64.834 37.0645 64.6113 36.959C64.3887 36.8535 64.2109 36.6777 64.0781 36.4316C63.9492 36.1816 63.8848 35.8457 63.8848 35.4238V29.1191ZM68.6016 30.6602V37H67.5117V30.6602H68.6016ZM67.4297 28.9785C67.4297 28.8027 67.4824 28.6543 67.5879 28.5332C67.6973 28.4121 67.8574 28.3516 68.0684 28.3516C68.2754 28.3516 68.4336 28.4121 68.543 28.5332C68.6562 28.6543 68.7129 28.8027 68.7129 28.9785C68.7129 29.1465 68.6562 29.291 68.543 29.4121C68.4336 29.5293 68.2754 29.5879 68.0684 29.5879C67.8574 29.5879 67.6973 29.5293 67.5879 29.4121C67.4824 29.291 67.4297 29.1465 67.4297 28.9785ZM70.0547 33.9004V33.7656C70.0547 33.3086 70.1211 32.8848 70.2539 32.4941C70.3867 32.0996 70.5781 31.7578 70.8281 31.4688C71.0781 31.1758 71.3809 30.9492 71.7363 30.7891C72.0918 30.625 72.4902 30.543 72.9316 30.543C73.377 30.543 73.7773 30.625 74.1328 30.7891C74.4922 30.9492 74.7969 31.1758 75.0469 31.4688C75.3008 31.7578 75.4941 32.0996 75.627 32.4941C75.7598 32.8848 75.8262 33.3086 75.8262 33.7656V33.9004C75.8262 34.3574 75.7598 34.7812 75.627 35.1719C75.4941 35.5625 75.3008 35.9043 75.0469 36.1973C74.7969 36.4863 74.4941 36.7129 74.1387 36.877C73.7871 37.0371 73.3887 37.1172 72.9434 37.1172C72.498 37.1172 72.0977 37.0371 71.7422 36.877C71.3867 36.7129 71.082 36.4863 70.8281 36.1973C70.5781 35.9043 70.3867 35.5625 70.2539 35.1719C70.1211 34.7812 70.0547 34.3574 70.0547 33.9004ZM71.1387 33.7656V33.9004C71.1387 34.2168 71.1758 34.5156 71.25 34.7969C71.3242 35.0742 71.4355 35.3203 71.584 35.5352C71.7363 35.75 71.9258 35.9199 72.1523 36.0449C72.3789 36.166 72.6426 36.2266 72.9434 36.2266C73.2402 36.2266 73.5 36.166 73.7227 36.0449C73.9492 35.9199 74.1367 35.75 74.2852 35.5352C74.4336 35.3203 74.5449 35.0742 74.6191 34.7969C74.6973 34.5156 74.7363 34.2168 74.7363 33.9004V33.7656C74.7363 33.4531 74.6973 33.1582 74.6191 32.8809C74.5449 32.5996 74.4316 32.3516 74.2793 32.1367C74.1309 31.918 73.9434 31.7461 73.7168 31.6211C73.4941 31.4961 73.2324 31.4336 72.9316 31.4336C72.6348 31.4336 72.373 31.4961 72.1465 31.6211C71.9238 31.7461 71.7363 31.918 71.584 32.1367C71.4355 32.3516 71.3242 32.5996 71.25 32.8809C71.1758 33.1582 71.1387 33.4531 71.1387 33.7656ZM78.2695 32.0137V37H77.1855V30.6602H78.2109L78.2695 32.0137ZM78.0117 33.5898L77.5605 33.5723C77.5645 33.1387 77.6289 32.7383 77.7539 32.3711C77.8789 32 78.0547 31.6777 78.2812 31.4043C78.5078 31.1309 78.7773 30.9199 79.0898 30.7715C79.4062 30.6191 79.7559 30.543 80.1387 30.543C80.4512 30.543 80.7324 30.5859 80.9824 30.6719C81.2324 30.7539 81.4453 30.8867 81.6211 31.0703C81.8008 31.2539 81.9375 31.4922 82.0312 31.7852C82.125 32.0742 82.1719 32.4277 82.1719 32.8457V37H81.082V32.834C81.082 32.502 81.0332 32.2363 80.9355 32.0371C80.8379 31.834 80.6953 31.6875 80.5078 31.5977C80.3203 31.5039 80.0898 31.457 79.8164 31.457C79.5469 31.457 79.3008 31.5137 79.0781 31.627C78.8594 31.7402 78.6699 31.8965 78.5098 32.0957C78.3535 32.2949 78.2305 32.5234 78.1406 32.7812C78.0547 33.0352 78.0117 33.3047 78.0117 33.5898ZM87.5098 35.3184C87.5098 35.1621 87.4746 35.0176 87.4043 34.8848C87.3379 34.748 87.1992 34.625 86.9883 34.5156C86.7812 34.4023 86.4688 34.3047 86.0508 34.2227C85.6992 34.1484 85.3809 34.0605 85.0957 33.959C84.8145 33.8574 84.5742 33.7344 84.375 33.5898C84.1797 33.4453 84.0293 33.2754 83.9238 33.0801C83.8184 32.8848 83.7656 32.6562 83.7656 32.3945C83.7656 32.1445 83.8203 31.9082 83.9297 31.6855C84.043 31.4629 84.2012 31.2656 84.4043 31.0938C84.6113 30.9219 84.8594 30.7871 85.1484 30.6895C85.4375 30.5918 85.7598 30.543 86.1152 30.543C86.623 30.543 87.0566 30.6328 87.416 30.8125C87.7754 30.9922 88.0508 31.2324 88.2422 31.5332C88.4336 31.8301 88.5293 32.1602 88.5293 32.5234H87.4453C87.4453 32.3477 87.3926 32.1777 87.2871 32.0137C87.1855 31.8457 87.0352 31.707 86.8359 31.5977C86.6406 31.4883 86.4004 31.4336 86.1152 31.4336C85.8145 31.4336 85.5703 31.4805 85.3828 31.5742C85.1992 31.6641 85.0645 31.7793 84.9785 31.9199C84.8965 32.0605 84.8555 32.209 84.8555 32.3652C84.8555 32.4824 84.875 32.5879 84.9141 32.6816C84.957 32.7715 85.0312 32.8555 85.1367 32.9336C85.2422 33.0078 85.3906 33.0781 85.582 33.1445C85.7734 33.2109 86.0176 33.2773 86.3145 33.3438C86.834 33.4609 87.2617 33.6016 87.5977 33.7656C87.9336 33.9297 88.1836 34.1309 88.3477 34.3691C88.5117 34.6074 88.5938 34.8965 88.5938 35.2363C88.5938 35.5137 88.5352 35.7676 88.418 35.998C88.3047 36.2285 88.1387 36.4277 87.9199 36.5957C87.7051 36.7598 87.4473 36.8887 87.1465 36.9824C86.8496 37.0723 86.5156 37.1172 86.1445 37.1172C85.5859 37.1172 85.1133 37.0176 84.7266 36.8184C84.3398 36.6191 84.0469 36.3613 83.8477 36.0449C83.6484 35.7285 83.5488 35.3945 83.5488 35.043H84.6387C84.6543 35.3398 84.7402 35.5762 84.8965 35.752C85.0527 35.9238 85.2441 36.0469 85.4707 36.1211C85.6973 36.1914 85.9219 36.2266 86.1445 36.2266C86.4414 36.2266 86.6895 36.1875 86.8887 36.1094C87.0918 36.0312 87.2461 35.9238 87.3516 35.7871C87.457 35.6504 87.5098 35.4941 87.5098 35.3184Z" fill="white"/>
</svg>
